<?xml version="1.0" encoding="UTF-8"?>
<!DOCTYPE svg PUBLIC "-//W3C//DTD SVG 1.1//EN" "http://www.w3.org/Graphics/SVG/1.1/DTD/svg11.dtd">
<!-- Creator: CorelDRAW 2020 (64-Bit) -->
<svg xmlns="http://www.w3.org/2000/svg" xml:space="preserve" width="72.255mm" height="85.3306mm" version="1.1" style="shape-rendering:geometricPrecision; text-rendering:geometricPrecision; image-rendering:optimizeQuality; fill-rule:evenodd; clip-rule:evenodd"
viewBox="0 0 8355.74 9867.84"
 xmlns:xlink="http://www.w3.org/1999/xlink"
 xmlns:xodm="http://www.corel.com/coreldraw/odm/2003">
 <defs>
  <style type="text/css">
   <![CDATA[
    .fil0 {fill:black}
   ]]>
  </style>
 </defs>
 <g id="Layer_x0020_1">
  <metadata id="CorelCorpID_0Corel-Layer"/>
  <g id="_360497438512">
   <path class="fil0" d="M6397.37 5352.9c-84.45,-56.55 -165.81,-116.01 -195.84,-228.47 217.23,0 388.36,-81.35 587.51,-97.93l-391.67 326.4zm-4830.67 -326.4c199.15,16.57 370.28,97.93 587.51,97.93 -30.03,112.46 -111.39,171.93 -195.84,228.47l-391.67 -326.4zm-1272.95 -2937.56c0,-109.06 572.94,-1231.63 717.08,-1502.43 3.46,-6.5 7.56,-15.23 11.16,-21.47 3.56,-6.2 8.04,-15.23 11.67,-20.97 50.15,-79.31 4.15,-9.27 43.45,-54.48l0 1468.79c288.25,0 754.19,-130.56 1011.82,-130.56 36.23,155.52 747.49,1249.56 783.35,1403.51 193.34,0 463.34,68.55 652.8,97.91 874.44,135.53 431.14,135.53 1305.58,0 189.46,-29.36 459.46,-97.91 652.8,-97.91 27.01,-115.97 118.59,-234.34 182.68,-339.55l405.3 -704.45c60.1,-103.89 166.11,-233.94 195.37,-359.51 227.98,0 723.53,130.56 1011.82,130.56l0 -1468.79c95.74,110.14 783.35,1525.97 783.35,1599.35l-685.42 2513.25c-139.52,3.11 -317.03,62.96 -430.84,91.4l-1331.71 332.91c-123.69,-184.73 -218.38,-166.34 -261.11,-326.39 -209.15,0 -224.66,26.82 -359.04,97.91 253.14,378.04 903.83,883.62 1077.11,1142.39 369.4,-195.46 1089.39,-763.07 1436.14,-946.54 106.45,71.28 219.95,189.84 326.4,261.12l0 718.07 -961.69 670.29c-3.57,3.03 -11.67,10.08 -17.5,15.15 -625.45,-418.82 -258.8,-560.01 -802.3,-149.51 -87.59,66.15 -34.11,54.83 -144.24,84.23 12.32,148.03 102.51,184.18 187.7,269.25 241.15,240.79 203.97,114.61 203.97,579.38 0,359.29 -32.63,591.31 -32.63,946.54 -109.39,29.21 -81.75,42.45 -182.43,111.34 -74.64,51.06 -104.58,72.31 -171.1,122.65 -430.56,325.82 -368.6,281.9 -919.9,-37.68 -170.38,-98.76 -362.31,-187.46 -521.76,-294.23l0 -554.88c443.52,0 355.83,-191.93 652.79,-261.12l0 -815.98c-67.73,-45.37 -206.49,-195.84 -293.75,-195.84l-1305.58 0c-87.26,0 -226.02,150.47 -293.75,195.84l0 815.98c296.96,69.19 209.27,261.12 652.79,261.12l0 554.88 -751.13 423.89c-441.45,222.25 -260.63,185.91 -841.8,-201.83 -92.18,-61.51 -103.05,-97.65 -202.26,-124.14l-32.63 -1272.95c0,-170.13 372.24,-288.68 391.67,-522.23 -129.33,-34.54 -430.1,-326.4 -456.95,-326.4 -100.67,0 -239.11,223.94 -489.6,391.68 -5.83,-5.07 -14.92,-20.69 -17.5,-15.15l-88.84 -74.37c-42.95,-33.62 -70.85,-50.76 -115.54,-80.29 -98.48,-65.11 -152.64,-106.74 -248.04,-176.27l-509.28 -339.35 0 -718.07c106.45,-71.28 219.95,-189.84 326.4,-261.12 339.85,179.84 1067.83,751.66 1436.14,946.54 98.43,-146.99 401,-417.26 546.75,-563.01 190.08,-190.08 383.3,-359.76 530.36,-579.38 -134.38,-71.1 -149.88,-97.91 -359.04,-97.91 -42.73,160.05 -137.42,141.66 -261.11,326.39l-1305.59 -326.39c-130.38,-32.59 -312.54,-94.7 -456.96,-97.93 -49.63,-213.05 -111.26,-397.78 -169.43,-613.91 -53.47,-198.67 -112.44,-419.74 -177.41,-638.59l-338.59 -1260.75zm-293.75 -32.65l0 5222.34 1436.14 1044.47 0 979.19 382.83 269.96c443.75,371.46 293.55,284.92 1053.31,284.92 135.29,0 99.79,-122.52 98.27,-260.76 -1.43,-130.49 -0.35,-261.49 -0.35,-392.03 182.09,-48.63 861.52,-554.88 946.54,-554.88 728.55,0 432.35,-60.24 992.15,280.8l476.63 274.07c0,800 -163.11,652.79 750.72,652.79 89.41,0 556.14,-434.64 783.35,-554.88l0 -979.19 1436.14 -1044.47 0 -5222.34c0,-120.96 -665.29,-1363.12 -750.7,-1534.07l-261.12 -522.23 -261.12 0c-65.06,122.97 -132.86,220.99 -206.54,348.33 -76.66,132.47 -144.9,249.12 -216.88,370.65 -40.64,68.62 -66.24,109.43 -109.52,184.23l-315.69 565.58c-487.56,0 -869.03,-220.41 -1661.5,-94.82 -489.65,77.61 -249.74,94.55 -761.07,4.13 -765.66,-135.39 -1218.39,90.69 -1690.02,90.69 -30.32,-113.57 -140.12,-250.69 -195.84,-359.04l-435.02 -740.01c-77.84,-134.45 -149.54,-240.8 -217.77,-369.74l-261.12 0 -511.26 1022.81c-90.02,180 -160.42,320.27 -250.45,500.27 -47.32,94.63 -78.2,170.98 -132.53,259.14 -56.08,91 -117.6,143.12 -117.6,274.07z"/>
   <path class="fil0" d="M3231.33 9269.66l0 587.51 1893.09 0 0 -587.51c-127.02,-29.59 -206.51,-107.82 -358.21,-196.66 -393.9,-230.7 -180.19,-195.02 -784.17,-195.02 -120.62,0 -439.64,214.81 -554.84,293.79 -66.29,45.45 -101.08,75.8 -195.86,97.89z"/>
  </g>
 </g>
</svg>
