<?xml version="1.0" standalone="no"?>
<!DOCTYPE svg PUBLIC "-//W3C//DTD SVG 20010904//EN"
 "http://www.w3.org/TR/2001/REC-SVG-20010904/DTD/svg10.dtd">
<svg version="1.0" xmlns="http://www.w3.org/2000/svg"
 width="646.000000pt" height="646.000000pt" viewBox="0 0 646.000000 646.000000"
 preserveAspectRatio="xMidYMid meet">
<metadata>
Created by potrace 1.11, written by Peter Selinger 2001-2013
</metadata>
<g transform="translate(0.000000,646.000000) scale(0.100000,-0.100000)"
fill="#000000" stroke="none">
<path d="M937 6010 c-124 -247 -223 -450 -219 -450 4 0 2 -4 -4 -8 -6 -4 -35
-56 -64 -117 -29 -60 -70 -137 -92 -170 -22 -33 -41 -65 -42 -72 -1 -7 -5 -16
-9 -19 -4 -4 -7 -789 -7 -1744 l0 -1736 166 -120 c91 -65 173 -125 182 -132 9
-7 82 -60 162 -117 80 -58 150 -109 155 -113 6 -4 26 -19 45 -32 19 -14 43
-33 54 -43 11 -9 23 -17 27 -17 4 0 14 -6 21 -13 7 -6 39 -31 71 -55 53 -39
65 -59 58 -96 -1 -5 -2 -54 -1 -110 0 -56 0 -114 -1 -131 0 -16 -1 -36 0 -42
1 -42 2 -230 1 -238 -11 -52 -1 -63 128 -154 70 -50 147 -107 171 -128 86 -74
171 -131 213 -141 25 -6 126 -10 245 -8 165 2 206 6 226 19 l25 16 -2 196 -2
196 55 28 c60 29 156 89 339 208 215 140 190 131 395 132 l177 0 67 -35 c37
-19 70 -38 73 -42 6 -8 88 -63 110 -74 8 -4 94 -54 190 -111 l175 -103 -2 -94
c-1 -52 -2 -135 -3 -183 -2 -97 11 -130 57 -148 15 -5 113 -8 238 -6 185 4
217 7 246 23 19 11 36 21 39 25 3 3 23 18 45 35 42 31 70 53 89 69 6 6 29 23
51 40 46 34 72 55 90 73 8 6 18 12 24 12 6 0 11 3 11 8 0 4 27 24 60 46 l60
38 0 319 0 318 67 50 c38 28 73 54 78 59 16 12 211 153 274 196 31 22 58 42
61 45 3 4 107 81 233 171 l227 164 -2 1730 -3 1731 -38 80 c-78 163 -220 446
-322 640 -57 110 -148 287 -201 393 l-96 192 -87 0 -87 0 -17 -32 c-10 -18
-27 -50 -40 -70 -20 -33 -99 -166 -167 -282 -14 -23 -79 -137 -144 -252 -66
-115 -134 -234 -151 -264 -24 -43 -38 -56 -63 -61 -17 -3 -34 -4 -36 -1 -3 3
-22 6 -43 7 -65 5 -142 15 -213 30 -89 18 -167 30 -275 41 -134 15 -410 4
-522 -20 -15 -4 -41 -8 -58 -11 -16 -2 -43 -7 -60 -10 -104 -22 -105 -22 -275
9 -112 21 -160 28 -205 33 -74 7 -310 6 -385 -2 -36 -4 -76 -8 -90 -10 -14 -1
-25 -3 -25 -4 0 -1 -13 -4 -30 -6 -31 -4 -210 -33 -255 -41 -14 -3 -61 -7
-106 -10 -80 -5 -80 -5 -94 23 -13 25 -94 164 -127 218 -7 11 -16 27 -20 35
-4 8 -38 66 -75 128 -37 62 -68 114 -68 116 0 2 -36 63 -80 136 -44 73 -80
134 -80 136 0 2 -19 34 -43 71 -24 38 -43 73 -43 78 1 6 -37 11 -90 13 l-92 3
-225 -451z m268 -351 c0 -424 2 -472 16 -480 9 -4 18 -7 20 -5 2 3 31 7 64 11
70 7 120 14 155 21 65 12 77 14 115 20 22 3 63 10 90 15 28 5 79 12 115 15 36
3 68 7 73 8 4 0 27 -35 50 -79 24 -44 70 -125 102 -180 33 -55 62 -104 65
-110 3 -5 45 -77 94 -159 49 -82 94 -159 100 -170 7 -12 27 -47 46 -80 18 -32
43 -77 54 -99 16 -31 27 -42 46 -43 44 -2 155 -16 161 -20 3 -2 25 -6 47 -9
23 -2 63 -10 89 -16 26 -6 61 -12 76 -14 55 -8 103 -15 127 -21 14 -2 36 -6
50 -8 14 -2 54 -9 90 -16 36 -7 79 -14 95 -17 66 -11 135 -8 230 8 547 97 623
109 685 113 21 1 32 15 65 78 22 43 63 115 91 160 28 46 64 106 79 133 48 86
60 106 70 123 6 9 34 60 64 112 30 52 71 120 91 150 20 30 49 81 64 113 15 32
30 56 34 53 4 -2 39 -7 77 -11 38 -3 88 -10 110 -15 22 -5 58 -11 80 -14 22
-4 65 -11 95 -16 68 -11 119 -18 188 -25 29 -3 56 -6 60 -6 38 -6 37 -20 37
475 0 261 3 472 8 469 11 -6 69 -111 65 -117 -2 -2 4 -12 13 -22 14 -16 261
-511 319 -639 38 -85 60 -132 83 -187 l25 -57 -33 -128 c-39 -149 -128 -475
-150 -548 -19 -67 -157 -575 -160 -594 -2 -9 -4 -16 -5 -16 -1 0 -3 -7 -5 -15
-14 -56 -66 -243 -78 -282 -8 -27 -12 -48 -9 -48 3 0 1 -5 -5 -11 -7 -7 -29
-13 -50 -16 -21 -2 -126 -27 -233 -54 -226 -59 -199 -52 -275 -69 -67 -15 -64
-15 -85 -22 -13 -5 -439 -111 -492 -123 -20 -4 -176 149 -184 183 -5 19 -16
25 -44 24 -64 -1 -180 -38 -195 -63 -9 -14 169 -215 289 -328 113 -105 376
-370 390 -393 l18 -27 40 21 c52 27 632 420 703 476 23 18 193 122 199 122 4
0 13 -6 21 -12 7 -7 30 -27 51 -45 22 -17 49 -39 61 -50 12 -10 35 -28 52 -41
l30 -23 -1 -235 0 -234 -54 -38 c-29 -20 -124 -86 -210 -147 -85 -60 -170
-118 -187 -129 -18 -10 -34 -21 -37 -25 -3 -3 -39 -29 -81 -58 l-75 -52 -56
42 c-69 52 -107 87 -175 160 -29 32 -59 57 -66 57 -8 0 -26 -9 -40 -20 -14
-11 -28 -20 -32 -20 -3 0 -17 -11 -31 -25 -14 -14 -37 -33 -52 -43 -32 -20
-67 -48 -99 -79 -13 -13 -26 -23 -28 -23 -3 0 -12 0 -20 0 -41 0 -3 -85 67
-147 105 -95 166 -162 170 -189 5 -40 2 -319 -6 -489 -4 -77 -9 -186 -11 -242
-3 -104 -8 -123 -27 -123 -6 0 -42 -24 -82 -53 -39 -29 -96 -71 -126 -92 -30
-22 -63 -47 -72 -55 -41 -37 -131 -83 -173 -88 -51 -5 -103 16 -245 103 -47
28 -114 67 -150 87 -58 31 -207 114 -262 144 -11 7 -24 16 -30 22 -9 9 -12
135 -8 343 0 21 5 27 23 26 48 -2 130 14 165 32 20 11 63 40 95 64 32 25 77
53 100 62 l42 16 0 265 0 265 -35 27 c-19 14 -39 32 -45 38 -5 7 -29 24 -52
38 l-43 26 -449 0 -450 0 -67 -51 c-109 -82 -99 -47 -99 -345 l0 -263 48 -20
c27 -12 76 -43 110 -69 75 -60 140 -84 230 -85 20 0 37 -3 38 -6 6 -53 1 -347
-6 -357 -5 -7 -28 -22 -50 -35 -22 -12 -65 -36 -95 -52 -30 -17 -98 -55 -150
-85 -236 -135 -348 -191 -388 -194 -35 -3 -70 13 -127 57 -77 60 -298 217
-329 233 l-31 17 -2 105 c0 58 -4 233 -8 390 -4 157 -7 299 -8 315 0 47 17 76
74 129 115 105 148 139 163 171 24 49 20 58 -31 85 -27 14 -86 57 -133 95 -47
39 -93 76 -102 83 -23 18 -60 -2 -131 -70 -81 -79 -128 -121 -168 -151 -34
-26 -36 -26 -55 -9 -30 27 -94 74 -144 106 -25 16 -47 31 -50 35 -3 3 -18 15
-35 27 -16 11 -60 41 -97 67 -38 26 -72 47 -77 47 -5 0 -11 3 -13 8 -1 4 -43
34 -93 66 -49 33 -95 65 -101 73 -8 9 -11 89 -12 242 l0 229 97 79 c53 44 101
83 108 86 14 9 79 -29 251 -146 73 -51 141 -96 150 -102 9 -5 19 -12 22 -15
13 -15 338 -235 425 -289 l99 -61 26 32 c13 18 158 166 320 328 163 162 310
316 328 341 l32 47 -25 16 c-13 9 -31 16 -40 16 -8 0 -15 4 -15 9 0 10 -105
28 -137 23 -12 -2 -24 -13 -27 -25 -3 -12 -42 -59 -86 -104 l-81 -82 -457 115
c-251 63 -473 119 -492 125 -19 5 -48 12 -65 15 -16 3 -45 9 -63 14 -18 5 -41
7 -52 5 -15 -3 -21 5 -30 43 -16 71 -17 74 -40 152 -12 40 -23 80 -26 89 -3
14 -22 82 -64 231 -81 286 -197 715 -201 745 0 2 -8 26 -16 52 -8 27 -26 91
-39 143 -14 52 -29 111 -35 130 -5 19 -11 43 -14 52 -3 15 44 153 63 182 4 6
7 13 7 16 3 18 310 635 382 768 24 45 48 82 52 82 3 0 6 -212 6 -471z m380
-2499 c0 -1 9 -3 20 -4 11 -1 38 -6 60 -10 22 -4 40 -7 40 -6 0 1 12 -3 26 -8
23 -9 101 -22 154 -26 41 -3 -6 -86 -71 -127 l-34 -21 -53 43 c-28 24 -59 50
-68 59 -9 8 -30 26 -49 40 -75 57 -86 73 -47 66 12 -3 22 -5 22 -6z m3339 -8
c-12 -9 -44 -35 -70 -56 -27 -22 -53 -45 -59 -50 -22 -23 -104 -86 -112 -86
-16 0 -90 74 -107 107 -18 36 -15 39 34 41 19 1 58 7 85 12 28 6 60 12 73 15
13 2 31 6 40 9 9 3 30 7 46 10 16 3 30 7 32 8 1 2 16 4 31 6 l28 2 -21 -18z"/>
<path d="M3061 639 c-13 -5 -40 -17 -60 -26 -42 -19 -238 -139 -263 -161 -10
-8 -42 -27 -71 -41 l-53 -26 1 -187 c0 -120 3 -188 10 -189 45 -4 1218 -3
1224 1 3 3 7 89 7 192 l-1 188 -32 11 c-19 6 -73 36 -121 68 -48 31 -94 60
-102 64 -8 4 -35 21 -60 37 -118 77 -110 75 -290 77 -91 0 -176 -3 -189 -8z"/>
</g>
</svg>
